# xmcd
#
# Track frame offsets:
#	150
#	18430
#	34730
#	56380
#	75692
#	95680
#	112147
#	127712
#	143487
#	159495
#	176155
#	191070
#	216827
#	233887
#	250977
#	266460
#	280007
#	298417
#
# Disc length: 4189 seconds
#
# Revision: 0
# Processed by: cddbd v1.5.1PL0 Copyright (c) Steve Scherf et al.
# Submitted via: EasyCDDAExtractor 7.1.2.1
#
DISCID=05105b12
DTITLE=Rita Coolidge
DYEAR=1998
DGENRE=
TTITLE0=(Your love has lifted me) Higher and higher
TTITLE1=Only you know and I know
TTITLE2=We've got tonite
TTITLE3=Born under a bad sign
TTITLE4=I'll be there
TTITLE5=The way you do, the things you do
TTITLE6=Words
TTITLE7=Fever
TTITLE8=Crazy love
TTITLE9=We're all alone
TTITLE10=I'll be your baby tonight
TTITLE11=Bird on the wire
TTITLE12=Wishin' and hopin'
TTITLE13=I don't want to talk about it
TTITLE14=I'd rather leave while I'm in love
TTITLE15=Bye bye love
TTITLE16=Slow dancer
TTITLE17=Journey thru the past
EXTD=
EXTT0=
EXTT1=
EXTT2=
EXTT3=
EXTT4=
EXTT5=
EXTT6=
EXTT7=
EXTT8=
EXTT9=
EXTT10=
EXTT11=
EXTT12=
EXTT13=
EXTT14=
EXTT15=
EXTT16=
EXTT17=
PLAYORDER=
